<?xml version="1.0" encoding="UTF-8"?>
<svg id="Calque_1" xmlns="http://www.w3.org/2000/svg" version="1.1" viewBox="0 0 24 24">
  <!-- Generator: Adobe Illustrator 29.2.1, SVG Export Plug-In . SVG Version: 2.1.0 Build 116)  -->
  <defs>
    <style>
      .st0 {
        fill: #f69d41;
      }
    </style>
  </defs>
  <path class="st0" d="M7,23l3.1-15.6c.1-.5.3-.8.7-1.1s.7-.4,1.1-.4.7,0,1.1.3.6.4.8.8l1,1.6c.3.5.7.9,1.2,1.3s1,.7,1.6.9v-1.8h1.5v14h-1.5v-10.2c-.8-.2-1.5-.5-2.2-.9s-1.3-.9-1.8-1.5l-.6,3,2.1,2v7.5h-2v-6l-2.1-2-1.8,8h-2.1ZM7.4,13.1l-2.1-.4c-.3,0-.5-.2-.6-.4s-.2-.5-.2-.8l.8-3.9c.1-.5.4-1,.9-1.3.5-.3,1-.4,1.5-.3l1.2.2-1.4,6.9ZM13.5,5.5c-.6,0-1-.2-1.4-.6s-.6-.9-.6-1.4.2-1,.6-1.4.9-.6,1.4-.6,1,.2,1.4.6.6.9.6,1.4-.2,1-.6,1.4-.9.6-1.4.6Z"/>
</svg>