<?xml version="1.0" encoding="UTF-8"?>
<svg id="Calque_1" xmlns="http://www.w3.org/2000/svg" version="1.1" viewBox="0 0 24 24">
  <!-- Generator: Adobe Illustrator 29.2.1, SVG Export Plug-In . SVG Version: 2.1.0 Build 116)  -->
  <defs>
    <style>
      .st0 {
        fill: #f69d41;
      }
    </style>
  </defs>
  <path class="st0" d="M12,21l-1.5-1.3c-1.7-1.5-3.1-2.8-4.2-3.9s-2-2.1-2.6-3-1.1-1.7-1.4-2.4-.4-1.5-.4-2.3c0-1.6.5-2.9,1.6-3.9s2.4-1.6,3.9-1.6,1.7.2,2.5.6,1.5.9,2,1.6c.6-.7,1.2-1.2,2-1.6s1.6-.6,2.5-.6c1.6,0,2.9.5,3.9,1.6s1.6,2.4,1.6,3.9-.1,1.5-.4,2.3-.7,1.5-1.4,2.4-1.5,1.9-2.6,3-2.5,2.4-4.2,3.9l-1.5,1.3ZM12,18.3c1.6-1.4,2.9-2.7,4-3.7s1.9-1.9,2.5-2.7c.6-.8,1-1.4,1.3-2s.4-1.2.4-1.8c0-1-.3-1.8-1-2.5s-1.5-1-2.5-1-1.5.2-2.2.7-1.1,1-1.4,1.7h-1.9c-.3-.7-.7-1.2-1.4-1.7s-1.4-.7-2.2-.7-1.8.3-2.5,1-1,1.5-1,2.5.1,1.2.4,1.8.7,1.3,1.3,2c.6.8,1.4,1.7,2.5,2.7s2.4,2.3,4,3.7Z"/>
</svg>