<?xml version="1.0" encoding="UTF-8"?>
<svg id="Calque_1" xmlns="http://www.w3.org/2000/svg" version="1.1" viewBox="0 0 24 24">
  <!-- Generator: Adobe Illustrator 29.2.1, SVG Export Plug-In . SVG Version: 2.1.0 Build 116)  -->
  <defs>
    <style>
      .st0 {
        fill: #f69d41;
      }
    </style>
  </defs>
  <path class="st0" d="M1,19V4h2v10h8V6h8c1.1,0,2,.4,2.8,1.2s1.2,1.7,1.2,2.8v9h-2v-3H3v3H1ZM7,13c-.8,0-1.5-.3-2.1-.9s-.9-1.3-.9-2.1.3-1.5.9-2.1,1.3-.9,2.1-.9,1.5.3,2.1.9.9,1.3.9,2.1-.3,1.5-.9,2.1-1.3.9-2.1.9ZM13,14h8v-4c0-.6-.2-1-.6-1.4s-.9-.6-1.4-.6h-6v6ZM7,11c.3,0,.5,0,.7-.3s.3-.4.3-.7,0-.5-.3-.7-.4-.3-.7-.3-.5,0-.7.3c-.2.2-.3.4-.3.7s0,.5.3.7c.2.2.4.3.7.3ZM13,8v6-6Z"/>
</svg>