<?xml version="1.0" encoding="UTF-8"?>
<svg id="Calque_1" xmlns="http://www.w3.org/2000/svg" version="1.1" viewBox="0 0 24 24">
  <!-- Generator: Adobe Illustrator 29.2.1, SVG Export Plug-In . SVG Version: 2.1.0 Build 116)  -->
  <defs>
    <style>
      .st0 {
        fill: #f69d41;
      }
    </style>
  </defs>
  <path class="st0" d="M9,21c-1.7,0-3.1-.6-4.3-1.8s-1.8-2.6-1.8-4.3v-6c0-1.7.6-3.1,1.8-4.3s2.6-1.8,4.3-1.8h6c1.7,0,3.1.6,4.3,1.8s1.8,2.6,1.8,4.3v6c0,1.7-.6,3.1-1.8,4.3s-2.6,1.8-4.3,1.8h-6ZM11,16l6-6-1.4-1.4-4.6,4.6-2.2-2.2-1.4,1.4,3.6,3.6ZM9,19h6c1.1,0,2-.4,2.8-1.2.8-.8,1.2-1.7,1.2-2.8v-6c0-1.1-.4-2-1.2-2.8s-1.7-1.2-2.8-1.2h-6c-1.1,0-2,.4-2.8,1.2-.8.8-1.2,1.7-1.2,2.8v6c0,1.1.4,2,1.2,2.8.8.8,1.7,1.2,2.8,1.2Z"/>
</svg>