<?xml version="1.0" encoding="UTF-8"?>
<svg id="Calque_1" xmlns="http://www.w3.org/2000/svg" version="1.1" viewBox="0 0 24 24">
  <!-- Generator: Adobe Illustrator 29.2.1, SVG Export Plug-In . SVG Version: 2.1.0 Build 116)  -->
  <defs>
    <style>
      .st0 {
        fill: #f69d41;
      }
    </style>
  </defs>
  <path class="st0" d="M5,21c-.3,0-.5,0-.7-.3-.2-.2-.3-.4-.3-.7v-1c-.8,0-1.5-.3-2.1-.9-.6-.6-.9-1.3-.9-2.1v-5c0-.8.3-1.5.9-2.1.6-.6,1.3-.9,2.1-.9v-2c0-.8.3-1.5.9-2.1s1.3-.9,2.1-.9h10c.8,0,1.5.3,2.1.9s.9,1.3.9,2.1v2c.8,0,1.5.3,2.1.9s.9,1.3.9,2.1v5c0,.8-.3,1.5-.9,2.1-.6.6-1.3.9-2.1.9v1c0,.3,0,.5-.3.7-.2.2-.4.3-.7.3s-.5,0-.7-.3c-.2-.2-.3-.4-.3-.7v-1H6v1c0,.3,0,.5-.3.7-.2.2-.4.3-.7.3ZM4,17h16c.3,0,.5,0,.7-.3s.3-.4.3-.7v-5c0-.3,0-.5-.3-.7s-.4-.3-.7-.3-.5,0-.7.3-.3.4-.3.7v4H5v-4c0-.3,0-.5-.3-.7s-.4-.3-.7-.3-.5,0-.7.3c-.2.2-.3.4-.3.7v5c0,.3,0,.5.3.7.2.2.4.3.7.3ZM7,13h10v-2c0-.5,0-.9.3-1.2s.4-.7.7-1v-2.8c0-.3,0-.5-.3-.7s-.4-.3-.7-.3H7c-.3,0-.5,0-.7.3-.2.2-.3.4-.3.7v2.8c.3.3.5.6.7,1s.3.8.3,1.2v2Z"/>
</svg>